<svg id="Layer_1" xmlns="http://www.w3.org/2000/svg" xmlns:xlink="http://www.w3.org/1999/xlink" viewBox="0 0 2347.4 475.9"><style>.st0{opacity:0.6;} .st1{opacity:0.14;clip-path:url(#SVGID_2_);fill:none;stroke:#FFFFFF;stroke-miterlimit:10;} .st2{clip-path:url(#SVGID_2_);fill:none;stroke:url(#SVGID_3_);stroke-miterlimit:10;} .st3{clip-path:url(#SVGID_2_);fill:none;stroke:url(#SVGID_4_);stroke-miterlimit:10;} .st4{clip-path:url(#SVGID_2_);fill:none;stroke:url(#SVGID_5_);stroke-miterlimit:10;} .st5{clip-path:url(#SVGID_2_);fill:none;stroke:url(#SVGID_6_);stroke-miterlimit:10;} .st6{clip-path:url(#SVGID_2_);fill:none;stroke:url(#SVGID_7_);stroke-miterlimit:10;} .st7{clip-path:url(#SVGID_2_);fill:none;stroke:url(#SVGID_8_);stroke-miterlimit:10;} .st8{clip-path:url(#SVGID_2_);fill:none;stroke:url(#SVGID_9_);stroke-miterlimit:10;} .st9{clip-path:url(#SVGID_2_);fill:none;stroke:url(#SVGID_10_);stroke-miterlimit:10;} .st10{clip-path:url(#SVGID_2_);fill:none;stroke:url(#SVGID_11_);stroke-miterlimit:10;} .st11{clip-path:url(#SVGID_2_);fill:none;stroke:url(#SVGID_12_);stroke-miterlimit:10;} .st12{clip-path:url(#SVGID_2_);fill:none;stroke:url(#SVGID_13_);stroke-miterlimit:10;} .st13{clip-path:url(#SVGID_2_);fill:none;stroke:url(#SVGID_14_);stroke-miterlimit:10;} .st14{clip-path:url(#SVGID_2_);fill:none;stroke:url(#SVGID_15_);stroke-miterlimit:10;} .st15{clip-path:url(#SVGID_2_);fill:none;stroke:url(#SVGID_16_);stroke-miterlimit:10;} .st16{clip-path:url(#SVGID_2_);fill:none;stroke:url(#SVGID_17_);stroke-miterlimit:10;} .st17{clip-path:url(#SVGID_2_);fill:none;stroke:url(#SVGID_18_);stroke-miterlimit:10;} .st18{clip-path:url(#SVGID_2_);fill:none;stroke:url(#SVGID_19_);stroke-miterlimit:10;} .st19{clip-path:url(#SVGID_2_);fill:none;stroke:url(#SVGID_20_);stroke-miterlimit:10;} .st20{clip-path:url(#SVGID_2_);fill:none;stroke:url(#SVGID_21_);stroke-miterlimit:10;} .st21{clip-path:url(#SVGID_2_);fill:none;stroke:url(#SVGID_22_);stroke-miterlimit:10;} .st22{clip-path:url(#SVGID_2_);fill:none;stroke:url(#SVGID_23_);stroke-miterlimit:10;} .st23{clip-path:url(#SVGID_2_);fill:none;stroke:url(#SVGID_24_);stroke-miterlimit:10;} .st24{clip-path:url(#SVGID_2_);fill:none;stroke:url(#SVGID_25_);stroke-miterlimit:10;} .st25{clip-path:url(#SVGID_2_);fill:none;stroke:url(#SVGID_26_);stroke-miterlimit:10;} .st26{clip-path:url(#SVGID_2_);fill:none;stroke:url(#SVGID_27_);stroke-miterlimit:10;} .st27{clip-path:url(#SVGID_2_);fill:none;stroke:url(#SVGID_28_);stroke-miterlimit:10;} .st28{clip-path:url(#SVGID_2_);fill:none;stroke:url(#SVGID_29_);stroke-miterlimit:10;} .st29{clip-path:url(#SVGID_2_);fill:none;stroke:url(#SVGID_30_);stroke-miterlimit:10;} .st30{clip-path:url(#SVGID_2_);fill:none;stroke:url(#SVGID_31_);stroke-miterlimit:10;} .st31{clip-path:url(#SVGID_2_);fill:none;stroke:url(#SVGID_32_);stroke-miterlimit:10;} .st32{clip-path:url(#SVGID_2_);fill:none;stroke:url(#SVGID_33_);stroke-miterlimit:10;} .st33{clip-path:url(#SVGID_2_);fill:none;stroke:url(#SVGID_34_);stroke-miterlimit:10;} .st34{clip-path:url(#SVGID_2_);fill:none;stroke:url(#SVGID_35_);stroke-miterlimit:10;} .st35{clip-path:url(#SVGID_2_);fill:none;stroke:url(#SVGID_36_);stroke-miterlimit:10;} .st36{clip-path:url(#SVGID_2_);fill:none;stroke:url(#SVGID_37_);stroke-miterlimit:10;} .st37{clip-path:url(#SVGID_2_);fill:none;stroke:url(#SVGID_38_);stroke-miterlimit:10;} .st38{clip-path:url(#SVGID_2_);fill:none;stroke:url(#SVGID_39_);stroke-miterlimit:10;} .st39{clip-path:url(#SVGID_2_);fill:none;stroke:url(#SVGID_40_);stroke-miterlimit:10;} .st40{clip-path:url(#SVGID_2_);fill:none;stroke:url(#SVGID_41_);stroke-miterlimit:10;} .st41{clip-path:url(#SVGID_2_);fill:none;stroke:url(#SVGID_42_);stroke-miterlimit:10;} .st42{clip-path:url(#SVGID_2_);fill:none;stroke:url(#SVGID_43_);stroke-miterlimit:10;} .st43{clip-path:url(#SVGID_2_);fill:none;stroke:url(#SVGID_44_);stroke-miterlimit:10;} .st44{clip-path:url(#SVGID_2_);fill:none;stroke:url(#SVGID_45_);stroke-miterlimit:10;} .st45{clip-path:url(#SVGID_2_);fill:none;stroke:url(#SVGID_46_);stroke-miterlimit:10;} .st46{clip-path:url(#SVGID_2_);fill:none;stroke:url(#SVGID_47_);stroke-miterlimit:10;} .st47{clip-path:url(#SVGID_2_);fill:none;stroke:url(#SVGID_48_);stroke-miterlimit:10;} .st48{clip-path:url(#SVGID_2_);fill:none;stroke:url(#SVGID_49_);stroke-miterlimit:10;} .st49{clip-path:url(#SVGID_2_);fill:none;stroke:url(#SVGID_50_);stroke-miterlimit:10;} .st50{clip-path:url(#SVGID_2_);fill:none;stroke:url(#SVGID_51_);stroke-miterlimit:10;} .st51{clip-path:url(#SVGID_2_);fill:none;stroke:url(#SVGID_52_);stroke-miterlimit:10;} .st52{clip-path:url(#SVGID_2_);fill:none;stroke:url(#SVGID_53_);stroke-miterlimit:10;} .st53{clip-path:url(#SVGID_2_);fill:none;stroke:url(#SVGID_54_);stroke-miterlimit:10;} .st54{clip-path:url(#SVGID_2_);fill:none;stroke:url(#SVGID_55_);stroke-miterlimit:10;} .st55{clip-path:url(#SVGID_2_);fill:none;stroke:url(#SVGID_56_);stroke-miterlimit:10;} .st56{clip-path:url(#SVGID_2_);fill:none;stroke:url(#SVGID_57_);stroke-miterlimit:10;} .st57{clip-path:url(#SVGID_2_);fill:none;stroke:#FFFFFF;stroke-miterlimit:10;} .st58{clip-path:url(#SVGID_2_);fill:none;stroke:url(#SVGID_58_);stroke-miterlimit:10;} .st59{clip-path:url(#SVGID_2_);fill:none;stroke:url(#SVGID_59_);stroke-miterlimit:10;} .st60{clip-path:url(#SVGID_2_);fill:none;stroke:url(#SVGID_60_);stroke-miterlimit:10;} .st61{clip-path:url(#SVGID_2_);fill:none;stroke:url(#SVGID_61_);stroke-miterlimit:10;} .st62{clip-path:url(#SVGID_2_);fill:none;stroke:url(#SVGID_62_);stroke-miterlimit:10;} .st63{clip-path:url(#SVGID_2_);fill:none;stroke:url(#SVGID_63_);stroke-miterlimit:10;} .st64{clip-path:url(#SVGID_2_);fill:none;stroke:url(#SVGID_64_);stroke-miterlimit:10;} .st65{clip-path:url(#SVGID_2_);fill:none;stroke:url(#SVGID_65_);stroke-miterlimit:10;} .st66{clip-path:url(#SVGID_2_);fill:none;stroke:url(#SVGID_66_);stroke-miterlimit:10;} .st67{clip-path:url(#SVGID_2_);fill:none;stroke:url(#SVGID_67_);stroke-miterlimit:10;} .st68{clip-path:url(#SVGID_2_);fill:none;stroke:url(#SVGID_68_);stroke-miterlimit:10;} .st69{clip-path:url(#SVGID_2_);fill:none;stroke:url(#SVGID_69_);stroke-miterlimit:10;} .st70{clip-path:url(#SVGID_2_);fill:none;stroke:url(#SVGID_70_);stroke-miterlimit:10;} .st71{clip-path:url(#SVGID_2_);fill:none;stroke:url(#SVGID_71_);stroke-miterlimit:10;} .st72{clip-path:url(#SVGID_2_);fill:none;stroke:url(#SVGID_72_);stroke-miterlimit:10;} .st73{clip-path:url(#SVGID_2_);fill:url(#SVGID_73_);} .st74{clip-path:url(#SVGID_2_);fill:url(#SVGID_74_);} .st75{clip-path:url(#SVGID_2_);fill:url(#SVGID_75_);} .st76{clip-path:url(#SVGID_2_);fill:url(#SVGID_76_);} .st77{clip-path:url(#SVGID_2_);fill:url(#SVGID_77_);} .st78{clip-path:url(#SVGID_2_);fill:url(#SVGID_78_);} .st79{clip-path:url(#SVGID_2_);fill:url(#SVGID_79_);} .st80{clip-path:url(#SVGID_2_);fill:url(#SVGID_80_);} .st81{opacity:0.6;clip-path:url(#SVGID_2_);fill:url(#SVGID_81_);} .st82{clip-path:url(#SVGID_2_);fill:url(#SVGID_82_);} .st83{clip-path:url(#SVGID_2_);fill:url(#SVGID_83_);} .st84{clip-path:url(#SVGID_2_);fill:url(#SVGID_84_);} .st85{opacity:0.4;clip-path:url(#SVGID_2_);fill:url(#SVGID_85_);} .st86{clip-path:url(#SVGID_2_);fill:url(#SVGID_86_);} .st87{opacity:0.25;clip-path:url(#SVGID_2_);fill:url(#SVGID_87_);} .st88{clip-path:url(#SVGID_2_);fill:url(#SVGID_88_);} .st89{clip-path:url(#SVGID_2_);} .st90{fill:#2D3234;} .st91{clip-path:url(#SVGID_2_);fill:url(#SVGID_89_);}</style><g class="st0"><defs><path id="SVGID_1_" class="st0" d="M0 0h2347.4v475.9H0z"/></defs><clipPath id="SVGID_2_"><use xlink:href="#SVGID_1_" overflow="visible"/></clipPath><path class="st1" d="M989.6 381.3l271.8 99.2M825 440.4l164.4-59.2M989.6 416.3l271.8 99.1M825 475.3l164.4-59.1M989.6 434.5l271.8 99.2M825 493.6l164.4-59.2"/><linearGradient id="SVGID_3_" gradientUnits="userSpaceOnUse" x1="722.33" y1="317.092" x2="988.615" y2="317.092"><stop offset="0" stop-color="#FFF" stop-opacity="0"/><stop offset="1" stop-color="#FFF" stop-opacity=".3"/></linearGradient><path class="st2" d="M722.5 269.2L988.4 365"/><linearGradient id="SVGID_4_" gradientUnits="userSpaceOnUse" x1="443.938" y1="156.643" x2="711.316" y2="156.643"><stop offset="0" stop-color="#FFF" stop-opacity="0"/><stop offset="1" stop-color="#FFF" stop-opacity=".15"/></linearGradient><path class="st3" d="M444.1 108.5l267 96.2"/><linearGradient id="SVGID_5_" gradientUnits="userSpaceOnUse" x1="926.542" y1="300.282" x2="1322.616" y2="300.282"><stop offset="0" stop-color="#FFF" stop-opacity="0"/><stop offset="1" stop-color="#FFF" stop-opacity=".3"/></linearGradient><path class="st4" d="M926.7 228.5L1322.4 372"/><linearGradient id="SVGID_6_" gradientUnits="userSpaceOnUse" x1="1526.458" y1="403.035" x2="2070.116" y2="403.035"><stop offset="0" stop-color="#FFF" stop-opacity="0"/><stop offset="1" stop-color="#FFF" stop-opacity=".3"/></linearGradient><path class="st5" d="M1526.6 304.5l543.3 197"/><linearGradient id="SVGID_7_" gradientUnits="userSpaceOnUse" x1="1676.845" y1="433.507" x2="2158.116" y2="433.507"><stop offset="0" stop-color="#FFF" stop-opacity="0"/><stop offset="1" stop-color="#FFF" stop-opacity=".3"/></linearGradient><path class="st6" d="M1677 346.3l480.9 174.4"/><linearGradient id="SVGID_8_" gradientUnits="userSpaceOnUse" x1="1930.845" y1="471.458" x2="2500.116" y2="471.458"><stop offset="0" stop-color="#FFF" stop-opacity="0"/><stop offset="1" stop-color="#FFF" stop-opacity=".3"/></linearGradient><path class="st7" d="M1931 368.3l568.9 206.3"/><linearGradient id="SVGID_9_" gradientUnits="userSpaceOnUse" x1="1235.52" y1="280.449" x2="1045.837" y2="280.449"><stop offset="0" stop-color="#FFF" stop-opacity="0"/><stop offset="1" stop-color="#FFF" stop-opacity=".3"/></linearGradient><path class="st8" d="M1046 314.3l189.4-67.8"/><linearGradient id="SVGID_10_" gradientUnits="userSpaceOnUse" x1="1297.992" y1="286.904" x2="1077.837" y2="286.904"><stop offset="0" stop-color="#FFF" stop-opacity="0"/><stop offset="1" stop-color="#FFF" stop-opacity=".3"/></linearGradient><path class="st9" d="M1078 326.3l219.8-78.8"/><linearGradient id="SVGID_11_" gradientUnits="userSpaceOnUse" x1="1518.504" y1="308.153" x2="1190.837" y2="308.153"><stop offset="0" stop-color="#FFF" stop-opacity="0"/><stop offset="1" stop-color="#FFF" stop-opacity=".3"/></linearGradient><path class="st10" d="M1191 366.8l327.3-117.3"/><linearGradient id="SVGID_12_" gradientUnits="userSpaceOnUse" x1="1603.156" y1="303.623" x2="1205.837" y2="303.623"><stop offset="0" stop-color="#FFF" stop-opacity="0"/><stop offset="1" stop-color="#FFF" stop-opacity=".3"/></linearGradient><path class="st11" d="M1206 374.7l397-142.2"/><path class="st1" d="M1448 345.3l653.4 235.2M1448 358l653.4 235.2M1448 413l653.4 235.2M1261.7 411.7l186.7-66.8M1261.7 424.4l186.7-66.8M1261.7 479.4l186.7-66.8M1448 450l653.4 235.2M1261.7 516.4l186.7-66.8M989.6 313.1l271.8 99.1M989.6 325l271.8 99.1M825 372.1l164.4-59.2M825 384l164.4-59.2M711.5 331.1l113.9 41M711.5 343l113.9 41"/><linearGradient id="SVGID_13_" gradientUnits="userSpaceOnUse" x1="627.962" y1="478.477" x2="627.962" y2="75.477"><stop offset="0" stop-color="#FFF" stop-opacity=".14"/><stop offset="1" stop-color="#FFF" stop-opacity="0"/></linearGradient><path class="st12" d="M628 75.5v403"/><linearGradient id="SVGID_14_" gradientUnits="userSpaceOnUse" x1="510.962" y1="478.477" x2="510.962" y2="74.477"><stop offset="0" stop-color="#FFF" stop-opacity=".14"/><stop offset="1" stop-color="#FFF" stop-opacity="0"/></linearGradient><path class="st13" d="M511 74.5v404"/><linearGradient id="SVGID_15_" gradientUnits="userSpaceOnUse" x1="434.962" y1="478.477" x2="434.962" y2="74.477"><stop offset="0" stop-color="#FFF" stop-opacity=".14"/><stop offset="1" stop-color="#FFF" stop-opacity="0"/></linearGradient><path class="st14" d="M435 74.5v404"/><linearGradient id="SVGID_16_" gradientUnits="userSpaceOnUse" x1="287.962" y1="475.477" x2="287.962" y2="74.477"><stop offset="0" stop-color="#FFF" stop-opacity=".14"/><stop offset="1" stop-color="#FFF" stop-opacity="0"/></linearGradient><path class="st15" d="M288 74.5v401"/><linearGradient id="SVGID_17_" gradientUnits="userSpaceOnUse" x1="233.962" y1="476.477" x2="233.962" y2="76.477"><stop offset="0" stop-color="#FFF" stop-opacity=".14"/><stop offset="1" stop-color="#FFF" stop-opacity="0"/></linearGradient><path class="st16" d="M234 76.5v400"/><linearGradient id="SVGID_18_" gradientUnits="userSpaceOnUse" x1="613.962" y1="478.477" x2="613.962" y2="75.477"><stop offset="0" stop-color="#FFF" stop-opacity=".14"/><stop offset="1" stop-color="#FFF" stop-opacity="0"/></linearGradient><path class="st17" d="M614 75.5v403"/><linearGradient id="SVGID_19_" gradientUnits="userSpaceOnUse" x1="546.962" y1="478.477" x2="546.962" y2="75.477"><stop offset="0" stop-color="#FFF" stop-opacity=".14"/><stop offset="1" stop-color="#FFF" stop-opacity="0"/></linearGradient><path class="st18" d="M547 75.5v403"/><linearGradient id="SVGID_20_" gradientUnits="userSpaceOnUse" x1="689.962" y1="478.477" x2="689.962" y2="73.477"><stop offset="0" stop-color="#FFF" stop-opacity=".14"/><stop offset="1" stop-color="#FFF" stop-opacity="0"/></linearGradient><path class="st19" d="M690 73.5v405"/><linearGradient id="SVGID_21_" gradientUnits="userSpaceOnUse" x1="355.628" y1="367.121" x2="355.628" y2="111.361"><stop offset="0" stop-color="#FFF" stop-opacity="0"/><stop offset=".37" stop-color="#FFF" stop-opacity=".15"/><stop offset=".837" stop-color="#FFF" stop-opacity="0"/></linearGradient><path class="st20" d="M-.2 366.7l711.6-254.9"/><linearGradient id="SVGID_22_" gradientUnits="userSpaceOnUse" x1="357.878" y1="272.78" x2="357.878" y2="18.631"><stop offset="0" stop-color="#FFF" stop-opacity="0"/><stop offset=".547" stop-color="#FFF" stop-opacity=".15"/><stop offset="1" stop-color="#FFF" stop-opacity="0"/></linearGradient><path class="st21" d="M4.3 272.3L711.4 19.1"/><linearGradient id="SVGID_23_" gradientUnits="userSpaceOnUse" x1="134.149" y1="168.803" x2="134.149" y2="68.526"><stop offset="0" stop-color="#FFF" stop-opacity="0"/><stop offset=".528" stop-color="#FFF" stop-opacity=".15"/><stop offset="1" stop-color="#FFF" stop-opacity="0"/></linearGradient><path class="st22" d="M-4.7 168.3L273 69"/><linearGradient id="SVGID_24_" gradientUnits="userSpaceOnUse" x1="166.3" y1="198.288" x2="166.3" y2="72.745"><stop offset="0" stop-color="#FFF" stop-opacity="0"/><stop offset=".528" stop-color="#FFF" stop-opacity=".15"/><stop offset="1" stop-color="#FFF" stop-opacity="0"/></linearGradient><path class="st23" d="M-7.7 197.8l348-124.6"/><linearGradient id="SVGID_25_" gradientUnits="userSpaceOnUse" x1="3.167" y1="332.31" x2="711.614" y2="332.31"><stop offset="0" stop-color="#FFF" stop-opacity="0"/><stop offset="1" stop-color="#FFF" stop-opacity=".15"/></linearGradient><path class="st24" d="M3.3 459.1l708.1-253.6"/><path class="st1" d="M130.3 489.9l581.1-208.1M295.3 480.8l416.1-149M328.4 480l383-137.1M711.5 399.1l113.9 41M711.5 435l113.9 41M295.3 548.8l416.1-149M328.4 572l383-137.1M711.5 453l113.9 41M328.4 590l383-137.1"/><linearGradient id="SVGID_26_" gradientUnits="userSpaceOnUse" x1="1733.955" y1="274.535" x2="1448.837" y2="274.535"><stop offset="0" stop-color="#FFF" stop-opacity="0"/><stop offset="1" stop-color="#FFF" stop-opacity=".3"/></linearGradient><path class="st25" d="M1449 325.5l284.8-102"/><linearGradient id="SVGID_27_" gradientUnits="userSpaceOnUse" x1="1714.79" y1="297.818" x2="1448.837" y2="297.818"><stop offset="0" stop-color="#FFF" stop-opacity="0"/><stop offset="1" stop-color="#FFF" stop-opacity=".3"/></linearGradient><path class="st26" d="M1449 345.4l265.6-95.1"/><linearGradient id="SVGID_28_" gradientUnits="userSpaceOnUse" x1="1861.757" y1="283.417" x2="1448.837" y2="283.417"><stop offset="0" stop-color="#FFF" stop-opacity="0"/><stop offset="1" stop-color="#FFF" stop-opacity=".3"/></linearGradient><path class="st27" d="M1449 357.3l412.6-147.8"/><linearGradient id="SVGID_29_" gradientUnits="userSpaceOnUse" x1="1531.78" y1="367.111" x2="1448.837" y2="367.111"><stop offset="0" stop-color="#FFF" stop-opacity="0"/><stop offset="1" stop-color="#FFF" stop-opacity=".3"/></linearGradient><path class="st28" d="M1449 381.9l82.6-29.6"/><linearGradient id="SVGID_30_" gradientUnits="userSpaceOnUse" x1="1544.035" y1="381.622" x2="1448.837" y2="381.622"><stop offset="0" stop-color="#FFF" stop-opacity="0"/><stop offset="1" stop-color="#FFF" stop-opacity=".3"/></linearGradient><path class="st29" d="M1449 398.6l94.9-34"/><linearGradient id="SVGID_31_" gradientUnits="userSpaceOnUse" x1="1939.689" y1="281.226" x2="1527.837" y2="281.226"><stop offset="0" stop-color="#FFF" stop-opacity="0"/><stop offset="1" stop-color="#FFF" stop-opacity=".3"/></linearGradient><path class="st30" d="M1528 354.9l411.5-147.4"/><linearGradient id="SVGID_32_" gradientUnits="userSpaceOnUse" x1="1796.114" y1="320.142" x2="1552.837" y2="320.142"><stop offset="0" stop-color="#FFF" stop-opacity="0"/><stop offset="1" stop-color="#FFF" stop-opacity=".3"/></linearGradient><path class="st31" d="M1553 363.6l242.9-87"/><linearGradient id="SVGID_33_" gradientUnits="userSpaceOnUse" x1="2089.114" y1="325.929" x2="1660.837" y2="325.929"><stop offset="0" stop-color="#FFF" stop-opacity="0"/><stop offset="1" stop-color="#FFF" stop-opacity=".3"/></linearGradient><path class="st32" d="M1661 402.5l427.9-153.2"/><linearGradient id="SVGID_34_" gradientUnits="userSpaceOnUse" x1="2208.114" y1="327.944" x2="1705.837" y2="327.944"><stop offset="0" stop-color="#FFF" stop-opacity="0"/><stop offset="1" stop-color="#FFF" stop-opacity=".3"/></linearGradient><path class="st33" d="M1706 417.8l501.9-179.7"/><linearGradient id="SVGID_35_" gradientUnits="userSpaceOnUse" x1="2369.741" y1="348.214" x2="1797.837" y2="348.214"><stop offset="0" stop-color="#FFF" stop-opacity="0"/><stop offset="1" stop-color="#FFF" stop-opacity=".3"/></linearGradient><path class="st34" d="M1798 450.5l571.6-204.6"/><linearGradient id="SVGID_36_" gradientUnits="userSpaceOnUse" x1="2229.915" y1="388.346" x2="1824.837" y2="388.346"><stop offset="0" stop-color="#FFF" stop-opacity="0"/><stop offset="1" stop-color="#FFF" stop-opacity=".3"/></linearGradient><path class="st35" d="M1825 460.8l404.7-144.9"/><linearGradient id="SVGID_37_" gradientUnits="userSpaceOnUse" x1="394.207" y1="205.735" x2="955.615" y2="205.735"><stop offset="0" stop-color="#FFF" stop-opacity="0"/><stop offset="1" stop-color="#FFF" stop-opacity=".3"/></linearGradient><path class="st36" d="M394.4 104.7l561 202.1"/><linearGradient id="SVGID_38_" gradientUnits="userSpaceOnUse" x1="397.501" y1="228.749" x2="912.615" y2="228.749"><stop offset="0" stop-color="#FFF" stop-opacity="0"/><stop offset="1" stop-color="#FFF" stop-opacity=".3"/></linearGradient><path class="st37" d="M397.7 136l514.7 185.5"/><linearGradient id="SVGID_39_" gradientUnits="userSpaceOnUse" x1="406.927" y1="257.35" x2="712.615" y2="257.35"><stop offset="0" stop-color="#FFF" stop-opacity="0"/><stop offset="1" stop-color="#FFF" stop-opacity=".3"/></linearGradient><path class="st38" d="M407.1 202.4l305.3 109.9"/><linearGradient id="SVGID_40_" gradientUnits="userSpaceOnUse" x1="406.927" y1="313.729" x2="712.615" y2="313.729"><stop offset="0" stop-color="#FFF" stop-opacity="0"/><stop offset="1" stop-color="#FFF" stop-opacity=".3"/></linearGradient><path class="st39" d="M407.1 258.7l305.3 110"/><linearGradient id="SVGID_41_" gradientUnits="userSpaceOnUse" x1="406.927" y1="329.64" x2="712.615" y2="329.64"><stop offset="0" stop-color="#FFF" stop-opacity="0"/><stop offset="1" stop-color="#FFF" stop-opacity=".3"/></linearGradient><path class="st40" d="M407.1 274.6l305.3 110"/><linearGradient id="SVGID_42_" gradientUnits="userSpaceOnUse" x1="896.126" y1="310.125" x2="757.663" y2="230.183"><stop offset="0" stop-color="#FFF" stop-opacity="0"/><stop offset="1" stop-color="#FFF" stop-opacity=".3"/></linearGradient><path class="st41" d="M711 311.8l231.8-83.3"/><linearGradient id="SVGID_43_" gradientUnits="userSpaceOnUse" x1="797.596" y1="368.334" x2="732.582" y2="330.798"><stop offset="0" stop-color="#FFF" stop-opacity="0"/><stop offset="1" stop-color="#FFF" stop-opacity=".3"/></linearGradient><path class="st42" d="M711 368.9l108.2-38.7"/><linearGradient id="SVGID_44_" gradientUnits="userSpaceOnUse" x1="797.596" y1="384.245" x2="732.582" y2="346.709"><stop offset="0" stop-color="#FFF" stop-opacity="0"/><stop offset="1" stop-color="#FFF" stop-opacity=".3"/></linearGradient><path class="st43" d="M711 384.8l108.2-38.7"/><linearGradient id="SVGID_45_" gradientUnits="userSpaceOnUse" x1="1041.114" y1="287.389" x2="776.837" y2="287.389"><stop offset="0" stop-color="#FFF" stop-opacity="0"/><stop offset="1" stop-color="#FFF" stop-opacity=".3"/></linearGradient><path class="st44" d="M777 334.8l263.9-94.8"/><linearGradient id="SVGID_46_" gradientUnits="userSpaceOnUse" x1="1071.975" y1="294.535" x2="798.837" y2="294.535"><stop offset="0" stop-color="#FFF" stop-opacity="0"/><stop offset="1" stop-color="#FFF" stop-opacity=".3"/></linearGradient><path class="st45" d="M799 343.5l272.8-98"/><linearGradient id="SVGID_47_" gradientUnits="userSpaceOnUse" x1="545.776" y1="214.232" x2="990.615" y2="214.232"><stop offset="0" stop-color="#FFF" stop-opacity="0"/><stop offset="1" stop-color="#FFF" stop-opacity=".3"/></linearGradient><path class="st46" d="M545.9 134.2l444.5 160.1"/><linearGradient id="SVGID_48_" gradientUnits="userSpaceOnUse" x1="913.344" y1="336.377" x2="988.615" y2="336.377"><stop offset="0" stop-color="#FFF" stop-opacity="0"/><stop offset="1" stop-color="#FFF" stop-opacity=".3"/></linearGradient><path class="st47" d="M913.5 322.9l74.9 27"/><linearGradient id="SVGID_49_" gradientUnits="userSpaceOnUse" x1="693.776" y1="251.382" x2="967.615" y2="251.382"><stop offset="0" stop-color="#FFF" stop-opacity="0"/><stop offset="1" stop-color="#FFF" stop-opacity=".3"/></linearGradient><path class="st48" d="M693.9 202.1l273.5 98.5"/><linearGradient id="SVGID_50_" gradientUnits="userSpaceOnUse" x1="1264.774" y1="292.386" x2="1449.617" y2="292.386"><stop offset="0" stop-color="#FFF" stop-opacity="0"/><stop offset="1" stop-color="#FFF" stop-opacity=".3"/></linearGradient><path class="st49" d="M1264.9 258.7l184.5 67.4"/><linearGradient id="SVGID_51_" gradientUnits="userSpaceOnUse" x1="1203.189" y1="299.857" x2="1449.618" y2="299.857"><stop offset="0" stop-color="#FFF" stop-opacity="0"/><stop offset="1" stop-color="#FFF" stop-opacity=".3"/></linearGradient><path class="st50" d="M1203.4 254.5l246 90.7"/><linearGradient id="SVGID_52_" gradientUnits="userSpaceOnUse" x1="1163.776" y1="307.244" x2="1449.615" y2="307.244"><stop offset="0" stop-color="#FFF" stop-opacity="0"/><stop offset="1" stop-color="#FFF" stop-opacity=".3"/></linearGradient><path class="st51" d="M1163.9 255.8l285.5 102.9"/><linearGradient id="SVGID_53_" gradientUnits="userSpaceOnUse" x1="1096.776" y1="319.793" x2="1449.615" y2="319.793"><stop offset="0" stop-color="#FFF" stop-opacity="0"/><stop offset="1" stop-color="#FFF" stop-opacity=".3"/></linearGradient><path class="st52" d="M1096.9 256.3l352.5 127"/><linearGradient id="SVGID_54_" gradientUnits="userSpaceOnUse" x1="1091.776" y1="334.804" x2="1449.615" y2="334.804"><stop offset="0" stop-color="#FFF" stop-opacity="0"/><stop offset="1" stop-color="#FFF" stop-opacity=".3"/></linearGradient><path class="st53" d="M1091.9 270.4l357.5 128.8"/><linearGradient id="SVGID_55_" gradientUnits="userSpaceOnUse" x1="1131.114" y1="268.291" x2="988.837" y2="268.291"><stop offset="0" stop-color="#FFF" stop-opacity="0"/><stop offset="1" stop-color="#FFF" stop-opacity=".3"/></linearGradient><path class="st54" d="M989 293.7l141.9-50.8"/><linearGradient id="SVGID_56_" gradientUnits="userSpaceOnUse" x1="1211.287" y1="310.315" x2="988.837" y2="310.315"><stop offset="0" stop-color="#FFF" stop-opacity="0"/><stop offset="1" stop-color="#FFF" stop-opacity=".3"/></linearGradient><path class="st55" d="M989 350.1l222.1-79.6"/><linearGradient id="SVGID_57_" gradientUnits="userSpaceOnUse" x1="1077.382" y1="349.406" x2="988.837" y2="349.406"><stop offset="0" stop-color="#FFF" stop-opacity="0"/><stop offset="1" stop-color="#FFF" stop-opacity=".3"/></linearGradient><path class="st56" d="M989 365.2l88.2-31.6"/><path class="st57" d="M712 311.9l114 41.2v237.4M711.5 368.4l113.9 41M711.5 384.3l113.9 41M801 343.5v242M777 335.5v261"/><linearGradient id="SVGID_58_" gradientUnits="userSpaceOnUse" x1="711.962" y1="523.477" x2="711.962" y2="94.477"><stop offset="0" stop-color="#FFF"/><stop offset=".956" stop-color="#FFF" stop-opacity="0"/></linearGradient><path class="st58" d="M712 94.5v429"/><linearGradient id="SVGID_59_" gradientUnits="userSpaceOnUse" x1="675.962" y1="478.477" x2="675.962" y2="73.477"><stop offset="0" stop-color="#FFF"/><stop offset=".956" stop-color="#FFF" stop-opacity="0"/></linearGradient><path class="st59" d="M676 73.5v405"/><linearGradient id="SVGID_60_" gradientUnits="userSpaceOnUse" x1="524.962" y1="478.477" x2="524.962" y2="74.477"><stop offset="0" stop-color="#FFF"/><stop offset=".956" stop-color="#FFF" stop-opacity="0"/></linearGradient><path class="st60" d="M525 74.5v404"/><linearGradient id="SVGID_61_" gradientUnits="userSpaceOnUse" x1="476.962" y1="478.477" x2="476.962" y2="74.477"><stop offset="0" stop-color="#FFF"/><stop offset=".956" stop-color="#FFF" stop-opacity="0"/></linearGradient><path class="st61" d="M477 74.5v404"/><linearGradient id="SVGID_62_" gradientUnits="userSpaceOnUse" x1="357.962" y1="475.477" x2="357.962" y2="115.477"><stop offset="0" stop-color="#FFF"/><stop offset=".956" stop-color="#FFF" stop-opacity="0"/></linearGradient><path class="st62" d="M358 115.5v360"/><linearGradient id="SVGID_63_" gradientUnits="userSpaceOnUse" x1="194.962" y1="475.477" x2="194.962" y2="123.477"><stop offset="0" stop-color="#FFF"/><stop offset=".956" stop-color="#FFF" stop-opacity="0"/></linearGradient><path class="st63" d="M195 123.5v352"/><linearGradient id="SVGID_64_" gradientUnits="userSpaceOnUse" x1="375.962" y1="475.477" x2="375.962" y2="82.477"><stop offset="0" stop-color="#FFF"/><stop offset=".956" stop-color="#FFF" stop-opacity="0"/></linearGradient><path class="st64" d="M376 82.5v393"/><path class="st57" d="M825.5 352.9l164.5-59v320.6M1047 314.5v321M1079 325.5v321M1192 366.5v321M1207 372.5v321M825 409.4l164.4-59.1M825 425.3l164.4-59.1"/><linearGradient id="SVGID_65_" gradientUnits="userSpaceOnUse" x1="266.4" y1="517.668" x2="689.345" y2="273.48"><stop offset="0" stop-color="#FFF"/><stop offset=".956" stop-color="#FFF" stop-opacity=".7"/></linearGradient><path class="st65" d="M244.3 479.2l467.1-167.3"/><linearGradient id="SVGID_66_" gradientUnits="userSpaceOnUse" x1="413.704" y1="506.749" x2="696.687" y2="343.369"><stop offset="0" stop-color="#FFF"/><stop offset=".956" stop-color="#FFF" stop-opacity=".7"/></linearGradient><path class="st66" d="M398.9 481l312.5-111.9"/><linearGradient id="SVGID_67_" gradientUnits="userSpaceOnUse" x1="413.704" y1="521.866" x2="696.687" y2="358.486"><stop offset="0" stop-color="#FFF"/><stop offset=".956" stop-color="#FFF" stop-opacity=".7"/></linearGradient><path class="st67" d="M398.9 496.1l312.5-111.9"/><linearGradient id="SVGID_68_" gradientUnits="userSpaceOnUse" x1="104.955" y1="531.946" x2="681.299" y2="199.194"><stop offset="0" stop-color="#FFF" stop-opacity="0"/><stop offset=".616" stop-color="#FFF" stop-opacity=".967"/><stop offset="1" stop-color="#FFF" stop-opacity="0"/></linearGradient><path class="st68" d="M74.8 479.6l636.6-228"/><linearGradient id="SVGID_69_" gradientUnits="userSpaceOnUse" x1="52.494" y1="522.305" x2="678.451" y2="160.909"><stop offset="0" stop-color="#FFF" stop-opacity="0"/><stop offset=".581" stop-color="#FFF"/><stop offset="1" stop-color="#FFF" stop-opacity=".3"/></linearGradient><path class="st69" d="M19.5 465l691.9-246.8"/><linearGradient id="SVGID_70_" gradientUnits="userSpaceOnUse" x1="32.09" y1="451.282" x2="677.667" y2="78.558"><stop offset="0" stop-color="#FFF" stop-opacity="0"/><stop offset=".512" stop-color="#FFF"/><stop offset=".956" stop-color="#FFF" stop-opacity=".1"/></linearGradient><path class="st70" d="M-1.7 392.6l713.1-255.4"/><linearGradient id="SVGID_71_" gradientUnits="userSpaceOnUse" x1="266.768" y1="267.349" x2="266.768" y2="73.078"><stop offset="0" stop-color="#FFF" stop-opacity="0"/><stop offset=".542" stop-color="#FFF" stop-opacity=".5"/><stop offset="1" stop-color="#FFF" stop-opacity="0"/></linearGradient><path class="st71" d="M-3.2 266.9L536.7 73.5"/><linearGradient id="SVGID_72_" gradientUnits="userSpaceOnUse" x1="207.439" y1="251.748" x2="207.439" y2="97.817"><stop offset="0" stop-color="#FFF" stop-opacity="0"/><stop offset=".542" stop-color="#FFF" stop-opacity=".5"/><stop offset="1" stop-color="#FFF" stop-opacity="0"/></linearGradient><path class="st72" d="M-6.2 251.3l427.3-153"/><path class="st57" d="M955 307.5v285M969 300.5v314M912 321.5v267M990.1 294.1l271.9 99v185.4M989.6 350.4l271.8 99.1M1448.6 325.5L2102 560.7v89.8M1448 398.6l653.4 235.2M1448 382.6l653.4 235.3M1262.2 392.8l186.8-66.9v244.6M1261.7 449.1l186.7-66.8M1261.7 465l186.7-66.8M989.6 366.3l271.8 99.1M1323 371.5v321M1530 355.5v320M1554 363.5v321M1663 402.5v321M1706 418.5v321M1798 450.5v321M1825 461.5v321"/><linearGradient id="SVGID_73_" gradientUnits="userSpaceOnUse" x1="788.458" y1="356.738" x2="788.458" y2="396.902"><stop offset="0" stop-color="#FFF" stop-opacity="0"/><stop offset="1" stop-color="#FFF" stop-opacity=".7"/></linearGradient><path class="st73" d="M784.5 394l8 2.9v-37.5l-8-2.7z"/><linearGradient id="SVGID_74_" gradientUnits="userSpaceOnUse" x1="744.458" y1="428.738" x2="744.458" y2="466.902"><stop offset="0" stop-color="#FFF" stop-opacity="0"/><stop offset="1" stop-color="#FFF" stop-opacity=".7"/></linearGradient><path class="st74" d="M740.5 464l8 2.9v-35.5l-8-2.7z"/><linearGradient id="SVGID_75_" gradientUnits="userSpaceOnUse" x1="1171.458" y1="398.295" x2="1171.458" y2="434.049"><stop offset="0" stop-color="#FFF" stop-opacity="0"/><stop offset="1" stop-color="#FFF" stop-opacity=".7"/></linearGradient><path class="st75" d="M1167.5 431.1l8 2.9v-33l-8-2.7z"/><linearGradient id="SVGID_76_" gradientUnits="userSpaceOnUse" x1="1003.458" y1="399.265" x2="1003.458" y2="440.577"><stop offset="0" stop-color="#FFF" stop-opacity="0"/><stop offset="1" stop-color="#FFF" stop-opacity=".7"/></linearGradient><path class="st76" d="M999.5 437.7l8 2.9V402l-8-2.7z"/><linearGradient id="SVGID_77_" gradientUnits="userSpaceOnUse" x1="1110.458" y1="442.265" x2="1110.458" y2="479.577"><stop offset="0" stop-color="#FFF" stop-opacity="0"/><stop offset="1" stop-color="#FFF" stop-opacity=".7"/></linearGradient><path class="st77" d="M1106.5 476.7l8 2.9V445l-8-2.7z"/><linearGradient id="SVGID_78_" gradientUnits="userSpaceOnUse" x1="1462.371" y1="416.639" x2="1462.371" y2="456.274"><stop offset="0" stop-color="#FFF" stop-opacity="0"/><stop offset="1" stop-color="#FFF" stop-opacity=".7"/></linearGradient><path class="st78" d="M1458.5 453.4l7.8 2.9v-37l-7.8-2.7z"/><linearGradient id="SVGID_79_" gradientUnits="userSpaceOnUse" x1="1567.038" y1="403.854" x2="1567.038" y2="442.549"><stop offset="0" stop-color="#FFF" stop-opacity="0"/><stop offset="1" stop-color="#FFF" stop-opacity=".7"/></linearGradient><path class="st79" d="M1563.2 439.6l7.7 2.9v-36l-7.8-2.6z"/><linearGradient id="SVGID_80_" gradientUnits="userSpaceOnUse" x1="4154.858" y1="457.972" x2="4154.858" y2="493.225" gradientTransform="matrix(-1 0 0 1 4752.185 0)"><stop offset="0" stop-color="#FFF" stop-opacity="0"/><stop offset="1" stop-color="#FFF" stop-opacity=".7"/></linearGradient><path class="st80" d="M601 490.3l-7.5 2.9v-32.5l7.7-2.7z"/><linearGradient id="SVGID_81_" gradientUnits="userSpaceOnUse" x1="4190.858" y1="228.356" x2="4190.858" y2="273.579" gradientTransform="matrix(-1 0 0 1 4752.185 0)"><stop offset="0" stop-color="#FFF" stop-opacity="0"/><stop offset="1" stop-color="#FFF" stop-opacity=".7"/></linearGradient><path class="st81" d="M565 270.7l-7.5 2.9v-42.5l7.7-2.7z"/><linearGradient id="SVGID_82_" gradientUnits="userSpaceOnUse" x1="3883.858" y1="373.471" x2="3883.858" y2="411.225" gradientTransform="matrix(-1 0 0 1 4752.185 0)"><stop offset="0" stop-color="#FFF" stop-opacity="0"/><stop offset="1" stop-color="#FFF" stop-opacity=".7"/></linearGradient><path class="st82" d="M872 408.3l-7.5 2.9v-35l7.7-2.7z"/><linearGradient id="SVGID_83_" gradientUnits="userSpaceOnUse" x1="4096.858" y1="286.891" x2="4096.858" y2="333.703" gradientTransform="matrix(-1 0 0 1 4752.185 0)"><stop offset="0" stop-color="#FFF" stop-opacity="0"/><stop offset="1" stop-color="#FFF" stop-opacity=".7"/></linearGradient><path class="st83" d="M659 330.8l-7.5 2.9v-44.1l7.7-2.7z"/><linearGradient id="SVGID_84_" gradientUnits="userSpaceOnUse" x1="4300.858" y1="420.094" x2="4300.858" y2="464.848" gradientTransform="matrix(-1 0 0 1 4752.185 0)"><stop offset="0" stop-color="#FFF" stop-opacity="0"/><stop offset="1" stop-color="#FFF" stop-opacity=".7"/></linearGradient><path class="st84" d="M455 461.9l-7.5 2.9v-42l7.7-2.7z"/><linearGradient id="SVGID_85_" gradientUnits="userSpaceOnUse" x1="4331.858" y1="197.6" x2="4331.858" y2="242.853" gradientTransform="matrix(-1 0 0 1 4752.185 0)"><stop offset="0" stop-color="#FFF" stop-opacity="0"/><stop offset="1" stop-color="#FFF" stop-opacity=".7"/></linearGradient><path class="st85" d="M424 239.9l-7.5 3v-42.6l7.7-2.7z"/><linearGradient id="SVGID_86_" gradientUnits="userSpaceOnUse" x1="4573.858" y1="396.558" x2="4573.858" y2="443.811" gradientTransform="matrix(-1 0 0 1 4752.185 0)"><stop offset="0" stop-color="#FFF" stop-opacity="0"/><stop offset="1" stop-color="#FFF" stop-opacity=".7"/></linearGradient><path class="st86" d="M182 440.9l-7.5 2.9v-44.5l7.7-2.7z"/><linearGradient id="SVGID_87_" gradientUnits="userSpaceOnUse" x1="4428.858" y1="114.811" x2="4428.858" y2="151.535" gradientTransform="matrix(-1 0 0 1 4752.185 0)"><stop offset="0" stop-color="#FFF" stop-opacity="0"/><stop offset="1" stop-color="#FFF" stop-opacity=".7"/></linearGradient><path class="st87" d="M327 148.6l-7.5 2.9v-34l7.7-2.7z"/><linearGradient id="SVGID_88_" gradientUnits="userSpaceOnUse" x1="3408.858" y1="386.178" x2="3408.858" y2="421.783" gradientTransform="matrix(-1 0 0 1 4752.185 0)"><stop offset="0" stop-color="#FFF" stop-opacity="0"/><stop offset="1" stop-color="#FFF" stop-opacity=".7"/></linearGradient><path class="st88" d="M1347 418.9l-7.5 2.9v-32.9l7.7-2.7z"/><linearGradient id="SVGID_89_" gradientUnits="userSpaceOnUse" x1="1676.371" y1="426.639" x2="1676.371" y2="466.274"><stop offset="0" stop-color="#FFF" stop-opacity="0"/><stop offset="1" stop-color="#FFF" stop-opacity=".7"/></linearGradient><path class="st91" d="M1672.5 463.4l7.8 2.9v-37l-7.8-2.7z"/></g></svg>